<svg width="297" height="554" viewBox="0 0 297 554" fill="none" xmlns="http://www.w3.org/2000/svg">
<path fill-rule="evenodd" clip-rule="evenodd" d="M297 0L279.629 17.1495C248.739 47.8376 224.26 84.3772 207.62 124.637C190.979 164.898 182.51 208.072 182.707 251.644V264.002C136.586 236.337 83.8622 221.654 30.1 221.503H2.37769e-08V251.644C-0.000937365 326.365 27.7151 398.422 77.7712 453.836C127.827 509.251 196.654 544.072 270.9 551.544V553.051H297V384.434C284.856 361.11 269.708 339.468 251.937 320.063C246.053 297.731 243.018 274.741 242.907 251.644C242.696 192.888 261.732 135.746 297 88.9371V0ZM200.421 352.359C163.116 315.003 114.592 290.95 62.307 283.895C69.3524 336.25 93.3737 384.84 130.679 422.196C167.984 459.551 216.508 483.605 268.793 490.66C261.748 438.304 237.726 389.714 200.421 352.359Z" fill="#8A7654" fill-opacity="0.16"/>
</svg>
