<svg width="236" height="235" viewBox="0 0 236 235" fill="none" xmlns="http://www.w3.org/2000/svg">
<path d="M179.606 37.2463C205.762 39.759 224.715 63.8414 226.194 87.6711C227.673 111.501 215.413 129.301 200.107 148.711C182.959 170.457 159.002 190.593 129.635 192.797C95.1522 195.385 64.8084 172.809 41.9931 149.204C29.6052 136.387 17.8939 127.48 12.5656 111.132C1.33798 76.6832 28.2519 44.9895 68.1154 50.1616C83.3448 52.1374 95.9037 56.1592 111.648 53.5651C134.682 49.7697 155.366 34.9179 179.606 37.2463Z" fill="#A38350" fill-opacity="0.2"/>
<path d="M80.7331 187.698C77.6774 190.754 72.7229 190.754 69.6668 187.698L37.2511 155.282C34.1954 152.226 34.1954 147.272 37.2511 144.216C40.3068 141.16 45.2612 141.16 48.3173 144.216L80.7335 176.632C83.7892 179.688 83.7892 184.642 80.7331 187.698Z" fill="#A38350"/>
<path d="M48.3221 144.216L80.7326 176.627C83.7922 179.686 83.7922 184.635 80.7326 187.695C77.673 190.755 72.7238 190.755 69.6642 187.695L62.0001 180.031C65.0597 183.09 70.0241 183.09 73.0686 180.031C76.1281 176.987 76.1281 172.022 73.0686 168.978L48.3221 144.216Z" fill="white"/>
<path d="M157.297 81.1943L152.278 86.2133L138.735 72.6702L143.754 67.6512C147.494 63.9116 153.557 63.9116 157.297 67.6512C161.037 71.3913 161.037 77.4547 157.297 81.1943Z" fill="#A38350"/>
<path d="M157.297 67.6515C159.172 69.5261 160.102 71.9709 160.102 74.4157C160.102 76.8752 159.172 79.3352 157.297 81.195L152.273 86.2192L149.723 83.6697L152.198 81.195C154.073 79.3352 155.003 76.8756 155.003 74.4157C155.003 71.9709 154.073 69.5266 152.198 67.6515C150.983 66.4367 149.528 65.6117 147.984 65.192C151.193 64.3069 154.778 65.1319 157.297 67.6515Z" fill="white"/>
<path d="M201.356 83.7545C201.356 90.0389 196.256 95.1379 189.972 95.1379C183.688 95.1379 178.574 90.0389 178.574 83.7545C178.574 77.4701 189.972 61.3775 189.972 61.3775C189.972 61.3775 201.356 77.4705 201.356 83.7545Z" fill="#A38350"/>
<path d="M192.941 94.7329C191.997 95.0029 191.007 95.1379 189.972 95.1379C183.688 95.1379 178.573 90.0389 178.573 83.7545C178.573 77.4701 189.972 61.3775 189.972 61.3775C189.972 61.3775 191.247 63.1773 192.941 65.8168C189.552 71.0512 184.513 79.5701 184.513 83.7545C184.513 89.004 188.082 93.4285 192.941 94.7329Z" fill="white"/>
<path d="M160.641 67.8376L186.703 41.7742C187.678 40.799 187.678 39.2199 186.703 38.2448C185.728 37.2696 184.149 37.2696 183.174 38.2448L157.112 64.3077C152.526 61.3079 146.178 61.6994 141.99 65.8873L138.728 69.1476C133.848 64.3994 126.144 64.5301 121.406 69.267L96.3917 94.2817C96.3904 94.283 96.3882 94.2834 96.3869 94.2851C96.3856 94.2869 96.3852 94.2886 96.3835 94.2899L67.0399 123.633L59.8218 116.415C58.8467 115.44 57.2676 115.44 56.2924 116.415C55.3173 117.391 55.3173 118.97 56.2924 119.945C59.1841 122.837 65.623 129.276 68.4909 132.143L54.1315 146.501L50.0803 142.45C46.0538 138.424 39.5051 138.427 35.4851 142.45C31.4616 146.476 31.4616 153.023 35.4851 157.046L67.9017 189.462C71.9346 193.495 78.4635 193.499 82.4969 189.462C86.5316 185.431 86.5325 178.902 82.4969 174.867L78.4462 170.816L92.8052 156.458C109.53 173.181 103.753 167.404 105.004 168.656C105.492 169.144 106.131 169.387 106.769 169.387C107.408 169.387 108.046 169.144 108.534 168.656C109.509 167.681 109.509 166.102 108.534 165.127L101.315 157.908L155.682 103.54C160.419 98.8066 160.546 91.0958 155.802 86.2187L159.062 82.9589C163.163 78.8571 163.688 72.5152 160.641 67.8376ZM78.9679 185.933C76.9532 187.948 73.4462 187.948 71.4315 185.933L39.0149 153.517C36.9383 151.44 36.9383 148.059 39.0149 145.98C41.0898 143.906 44.4708 143.899 46.5513 145.98C55.7434 155.172 62.438 161.867 73.1521 172.581L78.9679 178.397C81.051 180.479 81.0528 183.848 78.9679 185.933ZM74.9172 167.287L57.6617 150.031L72.0212 135.673L89.2762 152.929L74.9172 167.287ZM152.153 100.011L97.786 154.379C89.7106 146.303 83.2501 139.843 70.5701 127.163L78.903 118.83L91.0625 130.99C92.0377 131.965 93.6168 131.965 94.5919 130.99C95.5671 130.014 95.5671 128.435 94.5919 127.46L82.4324 115.301L88.536 109.197L94.9545 115.616C95.9296 116.591 97.5087 116.591 98.4839 115.616C99.459 114.64 99.459 113.061 98.4839 112.086L92.0654 105.668L98.1534 99.5801L110.312 111.739C111.287 112.714 112.866 112.714 113.841 111.739C114.817 110.764 114.817 109.185 113.841 108.209L101.683 96.0507L107.785 89.948L114.841 97.0038C115.816 97.9789 117.395 97.9789 118.371 97.0038C119.346 96.0286 119.346 94.4495 118.371 93.4744L111.315 86.4186L117.418 80.3151L129.576 92.4746C130.551 93.4497 132.13 93.4497 133.106 92.4746C134.081 91.4994 134.081 89.9203 133.106 88.9452L120.947 76.7857L124.937 72.7964C127.808 69.9254 132.457 69.9211 135.331 72.7964C163.892 101.356 132.322 69.7874 152.153 89.6162C155.018 92.4832 155.018 97.1453 152.153 100.011ZM155.533 79.4295L152.279 82.6837C152.112 82.5172 141.596 71.9999 142.265 72.6696L145.52 69.4162C148.286 66.65 152.766 66.6491 155.533 69.4162C158.292 72.1773 158.292 76.6689 155.533 79.4295Z" fill="#35363A"/>
<path d="M189.974 58.8821C189.973 58.8821 189.973 58.8821 189.973 58.8821C189.163 58.8821 188.404 59.2754 187.937 59.9351C185.956 62.7299 176.078 77.0167 176.078 83.7553C176.078 91.409 182.311 97.6341 189.973 97.6341C197.627 97.6341 203.852 91.409 203.852 83.7553C203.852 77.0184 193.988 62.7317 192.011 59.9364C191.542 59.2754 190.783 58.8821 189.974 58.8821ZM189.973 92.6424C185.064 92.6424 181.07 88.6566 181.07 83.7553C181.07 80.3592 185.92 71.9238 189.971 65.8029C194.017 71.9225 198.859 80.3544 198.859 83.7553C198.859 88.6562 194.874 92.6424 189.973 92.6424Z" fill="#35363A"/>
</svg>
