<svg width="235" height="238" viewBox="0 0 235 238" fill="none" xmlns="http://www.w3.org/2000/svg">
<path d="M204.693 110.194C219.563 128.226 216.327 155.302 202.26 171.229C188.194 187.156 169.281 190.647 147.439 193.236C122.969 196.136 95.2292 193.741 75.3718 176.658C52.0548 156.599 47.1785 123.306 47.6841 94.1013C47.9587 78.244 46.1987 65.2726 53.1356 51.6332C67.7536 22.8922 104.627 19.8738 126.444 48.2006C134.779 59.0225 140.146 69.4523 151.681 77.7218C168.557 89.8207 190.913 93.4832 204.693 110.194Z" fill="#A38350" fill-opacity="0.2"/>
<path d="M68.8277 97.9478C67.9512 97.9478 67.1444 98.4262 66.7237 99.1952L63.1529 105.724L56.6233 109.295C55.8544 109.716 55.376 110.523 55.376 111.399C55.376 112.276 55.8544 113.083 56.6233 113.503L63.1529 117.074L66.7237 123.603C67.1444 124.372 67.9512 124.851 68.8277 124.851C69.7042 124.851 70.511 124.372 70.9317 123.603L74.5025 117.074L81.0319 113.503C81.8009 113.083 82.2792 112.276 82.2792 111.399C82.2792 110.523 81.8008 109.716 81.0319 109.295L74.5025 105.725L70.9317 99.1952C70.5111 98.4262 69.7042 97.9478 68.8277 97.9478ZM71.5851 109.595L74.8839 111.399L71.5851 113.204C71.1827 113.424 70.8519 113.754 70.632 114.157L68.8278 117.455L67.0235 114.157C66.8036 113.754 66.4728 113.424 66.0704 113.203L62.7717 111.399L66.0704 109.595C66.4728 109.375 66.8036 109.044 67.0235 108.642L68.8278 105.343L70.632 108.642C70.8519 109.044 71.1827 109.375 71.5851 109.595Z" fill="#A38350"/>
<path d="M176.114 129.483L170.826 126.591L167.934 121.302C167.513 120.533 166.707 120.055 165.83 120.055C164.953 120.055 164.147 120.533 163.726 121.302L160.834 126.591L155.546 129.483C154.776 129.903 154.298 130.71 154.298 131.587C154.298 132.463 154.777 133.27 155.546 133.691L160.834 136.583L163.726 141.871C164.147 142.64 164.953 143.118 165.83 143.118C166.707 143.118 167.513 142.64 167.934 141.871L170.826 136.583L176.114 133.691C176.883 133.27 177.361 132.463 177.361 131.587C177.361 130.71 176.883 129.903 176.114 129.483ZM167.908 132.712C167.506 132.932 167.175 133.263 166.955 133.665L165.83 135.723L164.704 133.665C164.484 133.263 164.154 132.932 163.751 132.712L161.694 131.587L163.751 130.461C164.154 130.241 164.484 129.91 164.704 129.508L165.83 127.45L166.955 129.508C167.175 129.91 167.506 130.241 167.908 130.461L169.966 131.587L167.908 132.712Z" fill="#A38350"/>
<path d="M55.8801 47.0593L61.1683 49.9514L64.0604 55.2396C64.4811 56.0086 65.2877 56.4869 66.1644 56.4869C67.0409 56.4869 67.8478 56.0086 68.2684 55.2396L71.1606 49.9514L76.449 47.0593C77.218 46.6387 77.6963 45.832 77.6963 44.9553C77.6963 44.0788 77.2179 43.272 76.449 42.8515L71.1606 39.9592L68.2684 34.6708C67.8478 33.9018 67.0409 33.4235 66.1644 33.4235C65.2878 33.4235 64.4811 33.9018 64.0604 34.6708L61.1683 39.9592L55.8801 42.8515C55.1111 43.272 54.6328 44.0788 54.6328 44.9553C54.6328 45.832 55.1112 46.6387 55.8801 47.0593ZM64.086 43.8298C64.4884 43.6099 64.8192 43.279 65.0393 42.8767L66.1644 40.8191L67.29 42.8767C67.5099 43.2791 67.8407 43.6099 68.2431 43.8298L70.3006 44.9553L68.2431 46.0805C67.8407 46.3006 67.5099 46.6314 67.29 47.0338L66.1644 49.0913L65.0393 47.0338C64.8192 46.6314 64.4883 46.3006 64.086 46.0805L62.0284 44.9553L64.086 43.8298Z" fill="#A38350"/>
<path d="M100.282 130.626C100.282 126.234 96.7081 122.66 92.3155 122.66C87.923 122.66 84.3494 126.234 84.3494 130.626C84.3494 135.019 87.923 138.593 92.3155 138.593C96.7081 138.593 100.282 135.019 100.282 130.626ZM89.1454 130.626C89.1454 128.878 90.5675 127.456 92.3155 127.456C94.0636 127.456 95.4857 128.878 95.4857 130.626C95.4857 132.374 94.0636 133.797 92.3155 133.797C90.5675 133.797 89.1454 132.374 89.1454 130.626Z" fill="#A38350"/>
<path d="M180.577 95.1328C176.185 95.1328 172.611 98.7064 172.611 103.099C172.611 107.491 176.185 111.065 180.577 111.065C184.97 111.065 188.543 107.491 188.543 103.099C188.543 98.7064 184.97 95.1328 180.577 95.1328ZM180.577 106.269C178.829 106.269 177.407 104.847 177.407 103.099C177.407 101.351 178.829 99.9288 180.577 99.9288C182.325 99.9288 183.747 101.351 183.747 103.099C183.747 104.847 182.325 106.269 180.577 106.269Z" fill="#A38350"/>
<path d="M108.464 53.2806C108.902 53.2806 109.346 53.1606 109.744 52.9087L110.024 52.7327C111.152 52.038 111.503 50.5608 110.808 49.4333C110.114 48.3058 108.637 47.9548 107.509 48.649C107.35 48.7469 107.345 48.7506 107.297 48.7814L107.179 48.8562C106.06 49.5644 105.727 51.0458 106.435 52.1649C106.892 52.8859 107.669 53.2806 108.464 53.2806Z" fill="#A38350"/>
<path d="M124.683 99.0268C126.016 99.9326 127.616 100.412 129.308 100.412C131.062 100.412 132.771 99.8734 134.12 98.8958C135.193 98.1188 135.432 96.6196 134.655 95.547C133.878 94.4745 132.379 94.235 131.306 95.0122C130.769 95.4012 130.059 95.6156 129.308 95.6156C128.591 95.6156 127.905 95.418 127.378 95.0593C126.282 94.3159 124.791 94.6003 124.046 95.6956C123.302 96.791 123.587 98.2825 124.683 99.0268Z" fill="#35363A"/>
<path d="M154.936 82.7977C156.239 83.0093 157.475 82.1233 157.688 80.8159C157.9 79.5088 157.013 78.2766 155.706 78.0639C152.457 77.5355 149.757 78.8554 147.323 80.3606C145.612 81.4193 143.886 81.692 141.023 79.5797C139.958 78.7935 138.457 79.02 137.67 80.0855C136.884 81.1512 137.11 82.6526 138.176 83.439C140.468 85.1304 142.678 85.9743 144.844 85.9741C146.531 85.9739 148.193 85.4619 149.846 84.4396C151.798 83.2322 153.329 82.5365 154.936 82.7977Z" fill="#35363A"/>
<path d="M140.488 71.8611C140.562 71.8323 148.052 69.0311 154.004 72.8491C154.405 73.1062 154.853 73.2291 155.296 73.2289C156.086 73.2289 156.859 72.8393 157.317 72.1255C158.032 71.0108 157.708 69.5273 156.593 68.8123C148.555 63.656 139.146 67.2366 138.749 67.3912C137.519 67.8721 136.912 69.2565 137.389 70.489C137.866 71.7216 139.255 72.3341 140.488 71.8611Z" fill="#35363A"/>
<path d="M121.073 80.0855C120.287 79.02 118.786 78.7934 117.72 79.5796C114.858 81.6915 113.131 81.4192 111.42 80.3605C108.986 78.8552 106.285 77.5359 103.037 78.0638C101.73 78.2765 100.843 79.5087 101.055 80.8159C101.268 82.1232 102.501 83.0099 103.807 82.7977C105.413 82.536 106.945 83.232 108.897 84.4395C110.55 85.462 112.211 85.974 113.899 85.974C116.065 85.974 118.275 85.1301 120.567 83.4388C121.633 82.6525 121.859 81.1512 121.073 80.0855Z" fill="#35363A"/>
<path d="M103.447 73.2289C103.89 73.2289 104.339 73.1063 104.739 72.8491C110.67 69.0441 118.128 71.8126 118.255 71.8609C119.487 72.3384 120.874 71.7291 121.355 70.4975C121.837 69.2638 121.227 67.8732 119.994 67.3912C119.597 67.236 110.188 63.6558 102.15 68.8123C101.035 69.5274 100.711 71.0108 101.426 72.1255C101.884 72.8395 102.657 73.2289 103.447 73.2289Z" fill="#35363A"/>
<path d="M203.649 171.61C201.473 164.744 196.99 159.277 190.324 155.361C189.182 154.69 187.712 155.073 187.042 156.214C186.371 157.356 186.753 158.826 187.895 159.496C193.587 162.84 197.245 167.276 199.077 173.058C199.4 174.08 200.344 174.732 201.362 174.732C201.602 174.732 201.846 174.696 202.087 174.62C203.349 174.22 204.049 172.872 203.649 171.61Z" fill="#35363A"/>
<path d="M182.898 151.904L182.441 151.738C181.194 151.29 179.821 151.938 179.374 153.185C178.926 154.431 179.574 155.804 180.821 156.252L181.24 156.404C181.513 156.505 181.793 156.553 182.069 156.553C183.045 156.553 183.962 155.952 184.319 154.983C184.777 153.741 184.141 152.362 182.898 151.904Z" fill="#A38350"/>
<path d="M174.849 149.508C168.927 148.086 162.642 147.2 157.097 146.418C153.427 145.9 150.864 144.55 149.263 142.29C146.659 138.615 147.053 132.999 147.862 128.875C150.262 126.835 152.592 124.464 154.769 121.811C159.836 115.638 163.571 108.654 165.805 101.337C171.825 94.8802 175.983 87.5051 177.831 79.9825C179.308 73.9682 179.25 68.073 177.695 62.6548C179.111 57.4144 179.253 52.1752 178.111 47.067C175.701 36.2833 167.872 27.4362 156.065 22.1559C155.771 22.0241 155.474 21.8968 155.176 21.7703C153.095 18.2101 150.291 14.7707 146.814 11.5394C140.803 5.95298 133.529 2.08134 126.332 0.637527C117.911 -1.05197 110.04 0.631772 103.569 5.50699C95.2328 11.7877 89.6632 22.7136 87.0063 37.9815C85.7356 39.6049 84.5356 41.3108 83.4177 43.1007C76.2627 54.5566 73.4482 67.9172 75.8892 78.8404C76.9406 83.5442 78.9308 87.5973 81.7961 90.9002C82.0394 95.1011 83.0946 99.1303 84.9671 102.873C88.2112 109.359 93.711 114.479 100.886 117.723C103.322 121.295 106.118 124.577 109.189 127.425C109.453 127.67 109.72 127.903 109.985 128.14C110.928 132.513 111.442 138.38 108.794 142.209C107.197 144.518 104.616 145.894 100.903 146.418C82.9151 148.955 60.5285 152.112 54.3513 171.609C53.9513 172.872 54.6507 174.22 55.9131 174.62C56.1541 174.696 56.3981 174.732 56.638 174.732C57.6554 174.732 58.5998 174.08 58.9234 173.058C64.1886 156.439 84.0496 153.638 101.573 151.167C106.614 150.456 110.371 148.36 112.738 144.937C114.958 141.728 115.867 137.504 115.461 132.338C120.263 135.449 125.126 137.16 129.418 137.16C133.465 137.16 138.002 135.6 142.511 132.798C142.19 137.827 143.137 141.94 145.35 145.063C147.722 148.411 151.449 150.465 156.427 151.167C161.866 151.934 168.03 152.803 173.729 154.171C173.917 154.217 174.105 154.238 174.291 154.238C175.374 154.238 176.357 153.499 176.621 152.4C176.93 151.112 176.137 149.817 174.849 149.508ZM173.43 48.1131C173.912 50.2663 174.12 52.4512 174.064 54.6537C169.129 46.9838 160.833 41.7128 150.353 39.6763C148.964 39.4063 147.554 39.1996 146.128 39.05C147.868 34.3753 147.722 30.2874 145.681 26.866C144.786 25.3664 143.545 24.0431 141.977 22.8953C146.246 23.634 150.327 24.8433 154.107 26.5336C164.497 31.1805 171.359 38.8441 173.43 48.1131ZM106.455 9.33726C118.26 0.44377 133.592 5.79924 143.549 15.0525C144.992 16.3928 146.295 17.7684 147.471 19.1685C137.853 16.6881 127.142 16.5892 116.489 18.9699C107.921 20.8846 100.059 25.043 93.4535 31.035C96.2033 21.0607 100.559 13.7795 106.455 9.33726ZM112.451 123.909C106.104 118.021 101.023 110.112 98.1436 101.64C97.7174 100.385 96.3541 99.714 95.1014 100.141C93.8475 100.567 93.1765 101.929 93.6027 103.183C94.2873 105.197 95.0932 107.18 95.997 109.12C93.1462 106.769 90.8651 103.943 89.2565 100.728C86.0131 94.2445 85.6653 86.6775 88.2506 78.8448C90.8076 71.0977 96.2119 63.5058 103.468 57.4676C104.486 56.6205 104.624 55.1086 103.777 54.0905C102.93 53.0725 101.418 52.9335 100.4 53.7812C92.3481 60.4817 86.572 68.6288 83.6963 77.3418C83.0807 79.207 82.6187 81.0613 82.2933 82.8983C81.5601 81.3244 80.9789 79.6243 80.57 77.7942C78.3974 68.0727 80.9828 56.053 87.4855 45.6413C88.5879 43.8763 89.7746 42.1984 91.0373 40.6116C91.0875 40.5561 91.1328 40.497 91.1778 40.4367C98.089 31.8267 107.263 25.9462 117.535 23.6506C119.627 23.1833 121.718 22.8292 123.801 22.5654C127.868 22.6561 138.4 24.0122 141.565 29.328C142.993 31.7267 142.815 34.9019 141.05 38.7753C132.188 38.7153 122.91 40.8331 114.162 45.005C112.966 45.5751 112.459 47.0062 113.03 48.2016C113.6 49.3974 115.031 49.9045 116.226 49.3339C127.182 44.1096 138.978 42.3516 149.438 44.3844C159.672 46.3728 167.469 51.7896 171.395 59.6372C171.918 60.6832 172.365 61.7617 172.737 62.8669C172.729 63.3721 172.881 63.8594 173.161 64.2642C174.405 68.8052 174.42 73.7593 173.173 78.8384C172.173 82.9108 170.396 86.9498 167.943 90.8041C168.13 88.9904 168.228 87.1704 168.228 85.3505C168.228 81.7869 167.956 78.2267 167.421 74.7686C167.218 73.4597 165.992 72.5624 164.684 72.7659C163.375 72.9685 162.478 74.1937 162.681 75.5026C163.179 78.7188 163.432 82.032 163.432 85.3505C163.432 101.314 155.682 113.14 151.062 118.768C144.284 127.027 135.788 132.364 129.418 132.364C124.427 132.364 118.242 129.282 112.451 123.909Z" fill="#35363A"/>
<path d="M136.71 109.359C134.608 110.657 131.832 111.373 128.892 111.373C126.342 111.373 123.846 110.815 121.864 109.802C120.685 109.201 119.24 109.667 118.637 110.847C118.035 112.026 118.503 113.471 119.682 114.073C122.365 115.444 125.55 116.169 128.892 116.169C132.71 116.169 136.382 115.199 139.23 113.439C140.357 112.744 140.706 111.266 140.01 110.139C139.314 109.012 137.837 108.663 136.71 109.359Z" fill="#35363A"/>
</svg>
