<svg width="237" height="231" viewBox="0 0 237 231" fill="none" xmlns="http://www.w3.org/2000/svg">
<path d="M31.7025 132.321C15.4836 115.492 16.6175 88.2471 29.4111 71.2807C42.2046 54.3143 60.7912 49.3718 82.368 45.1028C106.541 40.3208 134.383 40.5653 155.501 56.0626C180.298 74.2599 187.732 107.076 189.485 136.233C190.437 152.064 193.194 164.86 187.332 178.995C174.978 208.78 138.449 214.639 114.508 188.082C105.362 177.937 99.204 167.953 87.065 160.6C69.3045 149.841 46.7325 147.917 31.7025 132.321Z" fill="#A38350" fill-opacity="0.2"/>
<path opacity="0.3" d="M176.635 46.203C182.209 39.1009 166.574 60.9004 154.343 60.9004C120.213 60.9004 122.728 26.8201 122.728 26.8201C122.728 26.8201 122.432 55.7218 152.912 55.7218C152.962 55.6725 170.816 53.6997 176.635 46.203Z" fill="#A38350"/>
<path opacity="0.3" d="M57.2804 46.203C51.7072 39.1009 67.3418 60.9004 79.5732 60.9004C113.703 60.9004 111.187 26.8201 111.187 26.8201C111.187 26.8201 111.483 55.7218 81.0035 55.7218C80.9542 55.6725 63.1495 53.6997 57.2804 46.203Z" fill="#A38350"/>
<path d="M179.743 135.275C179.743 135.275 141.322 141.391 120.558 179.812H114.837C94.0735 141.44 55.4064 135.917 55.4064 135.917L56.6887 133.204C57.7737 130.886 58.9574 128.667 60.1411 126.447C61.3248 124.228 77.1566 139.813 117.303 139.912H117.698C126.082 139.912 133.48 139.32 139.941 138.432C164.503 134.93 175.255 126.447 175.255 126.447C176.438 128.617 177.622 130.886 178.707 133.204C178.756 133.204 179.743 135.275 179.743 135.275Z" fill="#A38350"/>
<path d="M70.3996 63.8103C71.4353 66.227 72.3724 68.6437 73.1122 71.159C73.9014 73.6744 74.5425 76.239 75.0357 78.8037C76.0221 83.9823 76.466 89.3582 76.0714 94.7341C75.8742 97.4467 75.4796 100.11 74.8384 102.773C74.1973 105.437 73.3095 108.001 72.2245 110.517C71.6819 111.75 71.0408 112.983 70.3503 114.216C69.6598 115.449 69.0186 116.484 68.3282 117.619C66.9965 119.838 65.7635 122.058 64.5305 124.326C62.1138 128.814 59.8944 133.451 57.8723 138.136C55.8501 142.821 54.1239 147.605 52.595 152.488C51.0661 157.371 49.8824 162.303 48.9946 167.383C48.5507 169.898 48.2055 172.463 47.9096 175.028C47.6136 177.592 47.4164 180.206 47.2684 182.82C47.0218 181.538 46.7752 180.255 46.6272 178.924C46.43 177.641 46.3313 176.31 46.2327 174.978C46.0354 172.364 45.9861 169.701 46.0847 167.038C46.282 161.76 47.0218 156.434 48.2055 151.304C49.3892 146.126 51.0167 141.046 52.9896 136.114C53.976 133.648 55.061 131.231 56.1954 128.864C57.3791 126.496 58.5627 124.129 59.8451 121.811C61.1274 119.493 62.5084 117.224 63.8893 115.005C64.5798 113.87 65.3196 112.736 65.9608 111.75C66.6019 110.714 67.1938 109.629 67.7363 108.544C69.9557 104.154 71.3367 99.3702 72.1258 94.3889C72.8656 89.4075 72.9643 84.3275 72.6683 79.1982C72.3231 74.0196 71.4847 68.9396 70.3996 63.8103Z" fill="#35363A"/>
<path d="M117.747 115.843V111.404" stroke="#35363A" stroke-width="6" stroke-miterlimit="10" stroke-linecap="round" stroke-linejoin="round"/>
<path d="M165.095 63.8103C164.552 66.375 164.059 68.8903 163.615 71.455C163.22 74.0196 162.924 76.5842 162.727 79.1489C162.579 81.7136 162.481 84.2782 162.53 86.7935C162.579 89.3582 162.826 91.8735 163.22 94.3396C163.615 96.8056 164.157 99.2716 164.848 101.639C165.588 104.006 166.476 106.324 167.61 108.494C168.152 109.58 168.744 110.665 169.385 111.7C170.027 112.736 170.766 113.87 171.457 114.955C172.887 117.175 174.219 119.444 175.501 121.762C180.63 130.985 184.872 140.849 187.239 151.206C188.423 156.384 189.163 161.662 189.36 166.939C189.459 169.602 189.409 172.216 189.212 174.88C189.015 177.494 188.67 180.108 188.127 182.672C187.93 180.058 187.782 177.444 187.486 174.88C187.19 172.315 186.845 169.75 186.401 167.235C185.513 162.204 184.329 157.223 182.801 152.34C181.321 147.457 179.545 142.673 177.573 137.988C176.586 135.621 175.55 133.303 174.416 130.985C173.331 128.666 172.147 126.398 170.964 124.129C169.78 121.86 168.498 119.641 167.215 117.421C166.574 116.287 165.933 115.251 165.193 114.018C164.503 112.835 163.911 111.602 163.319 110.319C161.1 105.289 159.817 99.9127 159.472 94.5368C159.275 91.8735 159.275 89.1609 159.472 86.4976C159.62 83.8343 159.965 81.2204 160.458 78.6064C160.952 75.9924 161.593 73.4278 162.333 70.9617C163.171 68.693 164.059 66.227 165.095 63.8103Z" fill="#35363A"/>
<path d="M171.802 88.865L204.452 90.5912L171.802 92.3174C170.865 92.3668 170.027 91.627 169.977 90.6899C169.928 89.7528 170.668 88.9143 171.605 88.865H171.802Z" fill="#35363A"/>
<path d="M177.918 84.5248L171.802 90.5912L177.918 96.6576" stroke="#35363A" stroke-width="7" stroke-miterlimit="10" stroke-linecap="round" stroke-linejoin="round"/>
<path d="M200.013 149.973L232.663 151.699L200.013 153.425C199.076 153.475 198.238 152.735 198.188 151.798C198.139 150.861 198.879 150.022 199.816 149.973H200.013Z" fill="#35363A"/>
<path d="M206.129 145.633L200.013 151.699L206.129 157.765" stroke="#35363A" stroke-width="7" stroke-miterlimit="10" stroke-linecap="round" stroke-linejoin="round"/>
<path d="M64.9744 92.3175L32.3244 90.5913L64.9744 88.865C65.9115 88.8157 66.7499 89.5555 66.7993 90.4926C66.8486 91.4297 66.1088 92.2681 65.1717 92.3175C65.0731 92.3175 65.0237 92.3175 64.9744 92.3175Z" fill="#35363A"/>
<path d="M58.8587 84.5248L64.9744 90.5912L58.8587 96.6576" stroke="#35363A" stroke-width="7" stroke-miterlimit="10" stroke-linecap="round" stroke-linejoin="round"/>
<path d="M36.7632 153.425L4.11322 151.699L36.7632 149.973C37.7003 149.924 38.5388 150.663 38.5881 151.6C38.6374 152.538 37.8976 153.376 36.9605 153.425C36.8619 153.425 36.8126 153.425 36.7632 153.425Z" fill="#35363A"/>
<path d="M30.6475 145.633L36.7632 151.699L30.6475 157.765" stroke="#35363A" stroke-width="7" stroke-miterlimit="10" stroke-linecap="round" stroke-linejoin="round"/>
<path d="M153.06 65.4379C153.06 65.4379 152.765 66.2764 152.37 67.8053" stroke="#35363A" stroke-width="4" stroke-linecap="round" stroke-linejoin="round"/>
<path d="M150.594 77.3734C149.312 87.3855 149.361 102.083 156.858 115.103" stroke="#35363A" stroke-width="4" stroke-linecap="round" stroke-linejoin="round" stroke-dasharray="9.87 19.74"/>
<path d="M159.521 119.197C160.015 119.838 160.508 120.529 161.001 121.17" stroke="#35363A" stroke-width="4" stroke-linecap="round" stroke-linejoin="round"/>
<path d="M171.112 148.345C171.112 148.345 171.654 149.085 172.345 150.466" stroke="#35363A" stroke-width="4" stroke-linecap="round" stroke-linejoin="round"/>
<path d="M175.748 160.922C176.29 164.078 176.586 167.728 176.34 171.92" stroke="#35363A" stroke-width="4" stroke-linecap="round" stroke-linejoin="round" stroke-dasharray="11.19 22.38"/>
<path d="M175.748 177.395C175.6 178.184 175.452 179.023 175.304 179.812" stroke="#35363A" stroke-width="4" stroke-linecap="round" stroke-linejoin="round"/>
<path d="M82.9763 65.4379C82.9763 65.4379 83.2722 66.2764 83.6667 67.8053" stroke="#35363A" stroke-width="4" stroke-linecap="round" stroke-linejoin="round"/>
<path d="M85.4916 77.3734C86.774 87.3855 86.7246 102.083 79.228 115.103" stroke="#35363A" stroke-width="4" stroke-linecap="round" stroke-linejoin="round" stroke-dasharray="9.87 19.74"/>
<path d="M76.5646 119.197C76.0714 119.838 75.5782 120.529 75.085 121.17" stroke="#35363A" stroke-width="4" stroke-linecap="round" stroke-linejoin="round"/>
<path d="M140.385 128.814V101.935C140.385 101.935 141.322 79.2969 117.747 79.2969C94.1721 79.2969 95.1091 101.935 95.1091 101.935V133.894" stroke="#35363A" stroke-width="4" stroke-linecap="round" stroke-linejoin="round" stroke-dasharray="10.23 20.47"/>
<path d="M64.9745 148.345C64.9745 148.345 64.4319 149.085 63.7415 150.466" stroke="#35363A" stroke-width="4" stroke-linecap="round" stroke-linejoin="round"/>
<path d="M60.3384 160.922C59.7959 164.078 59.4999 167.728 59.7465 171.92" stroke="#35363A" stroke-width="4" stroke-linecap="round" stroke-linejoin="round" stroke-dasharray="11.19 22.38"/>
<path d="M60.3384 177.395C60.4863 178.184 60.6343 179.023 60.7823 179.812" stroke="#35363A" stroke-width="4" stroke-linecap="round" stroke-linejoin="round"/>
</svg>
