<svg width="1440" height="625" viewBox="0 0 1440 625" fill="none" xmlns="http://www.w3.org/2000/svg">
<rect x="22" width="978.649" height="624.508" fill="#FAF8F5"/>
<rect width="1440" height="625" fill="#A38350"/>
<path fill-rule="evenodd" clip-rule="evenodd" d="M-1 70L16.3711 87.1494C47.261 117.838 71.74 154.377 88.3804 194.637C105.021 234.897 113.49 278.072 113.293 321.644V334.002C159.414 306.337 212.138 291.654 265.9 291.503H296V321.644C296.001 396.365 268.285 468.422 218.229 523.836C168.173 579.251 99.3457 614.072 25.1001 621.544V623.051H-1V454.434C11.1443 431.111 26.2915 409.468 44.063 390.063C49.9473 367.73 52.9814 344.741 53.093 321.644C53.3044 262.888 34.2678 205.746 -1 158.937V70ZM95.5789 422.359C132.884 385.003 181.408 360.949 233.693 353.895C226.648 406.25 202.626 454.84 165.321 492.196C128.016 529.551 79.4919 553.605 27.207 560.66C34.2524 508.304 58.2737 459.714 95.5789 422.359Z" fill="#8A7654"/>
</svg>
