<svg width="297" height="554" viewBox="0 0 297 554" fill="none" xmlns="http://www.w3.org/2000/svg">
<path fill-rule="evenodd" clip-rule="evenodd" d="M0 0L17.3711 17.1494C48.261 47.8376 72.74 84.3772 89.3804 124.637C106.021 164.897 114.49 208.072 114.293 251.644V264.002C160.414 236.337 213.138 221.654 266.9 221.503H297V251.644C297.001 326.365 269.285 398.422 219.229 453.836C169.173 509.251 100.346 544.072 26.1001 551.544V553.051H0V384.434C12.1443 361.111 27.2915 339.468 45.063 320.063C50.9473 297.73 53.9814 274.741 54.093 251.644C54.3044 192.888 35.2678 135.746 0 88.9373V0ZM96.5789 352.359C133.884 315.003 182.408 290.949 234.693 283.895C227.648 336.25 203.626 384.84 166.321 422.196C129.016 459.551 80.4919 483.605 28.207 490.66C35.2524 438.304 59.2737 389.714 96.5789 352.359Z" fill="#8A7654"/>
</svg>
