<svg width="25" height="44" viewBox="0 0 25 44" fill="none" xmlns="http://www.w3.org/2000/svg">
<path d="M21.6531 17.1738C21.6531 17.1738 26.8976 25.8357 22.9238 34.103C18.95 42.3702 11.4009 45.5469 8.61885 42.1295L8.50047 36.9837C8.50047 36.9837 9.21473 38.574 10.805 38.2544C12.3954 37.9347 19.2972 34.3121 20.9112 25.9146C22.5252 17.5171 21.3887 18.1525 21.6531 17.1738Z" fill="url(#paint0_linear_185_20983)"/>
<path d="M9.18316 42.7649C9.18316 42.7649 7.56917 37.7059 9.68827 33.0415C11.8074 28.381 15.4615 24.2454 17.4228 20.6426C19.3841 17.0397 22.0319 14.5496 15.939 4.74731C15.939 4.74731 15.5563 14.4155 12.2217 18.3774C8.84379 22.3907 6.29455 27.8483 5.71052 30.8158C5.13043 33.7873 4.97258 38.1321 9.18316 42.7649Z" fill="url(#paint1_linear_185_20983)"/>
<path d="M12.861 0C12.861 0 19.0605 4.86171 14.5026 12.0635C9.94477 19.2653 3.85185 24.8334 3.27176 31.6129C3.27176 31.6129 3.11392 33.9451 3.69401 35.9577C3.69401 35.9577 -2.55675 29.0163 1.20397 22.2881C4.96468 15.5598 8.51625 12.9632 11.0063 7.08341C13.4963 1.20359 12.861 0 12.861 0Z" fill="url(#paint2_linear_185_20983)"/>
<defs>
<linearGradient id="paint0_linear_185_20983" x1="13.1267" y1="38.8616" x2="22.3146" y2="25.8707" gradientUnits="userSpaceOnUse">
<stop stop-color="#957138"/>
<stop offset="0.4535" stop-color="#E8C690"/>
<stop offset="0.9682" stop-color="#F1DEBC"/>
</linearGradient>
<linearGradient id="paint1_linear_185_20983" x1="2.47504" y1="38.0216" x2="22.6487" y2="9.49797" gradientUnits="userSpaceOnUse">
<stop stop-color="#E0BA82"/>
<stop offset="0.4535" stop-color="#E8C690"/>
<stop offset="0.9682" stop-color="#F1DEBC"/>
</linearGradient>
<linearGradient id="paint2_linear_185_20983" x1="-1.72821" y1="32.1242" x2="18.2809" y2="3.83337" gradientUnits="userSpaceOnUse">
<stop stop-color="#E0BA82"/>
<stop offset="0.4535" stop-color="#E8C690"/>
<stop offset="0.9682" stop-color="#F1DEBC"/>
</linearGradient>
</defs>
</svg>
