<svg width="149" height="44" viewBox="0 0 149 44" fill="none" xmlns="http://www.w3.org/2000/svg">
<path d="M21.6531 17.1738C21.6531 17.1738 26.8976 25.8357 22.9238 34.103C18.95 42.3702 11.4009 45.5469 8.61885 42.1295L8.50047 36.9837C8.50047 36.9837 9.21473 38.574 10.805 38.2544C12.3954 37.9347 19.2972 34.3121 20.9112 25.9146C22.5252 17.5171 21.3887 18.1525 21.6531 17.1738Z" fill="url(#paint0_linear_185_20982)"/>
<path d="M9.18316 42.7649C9.18316 42.7649 7.56917 37.7059 9.68827 33.0415C11.8074 28.381 15.4615 24.2454 17.4228 20.6426C19.3841 17.0397 22.0319 14.5496 15.939 4.74731C15.939 4.74731 15.5563 14.4155 12.2217 18.3774C8.84379 22.3907 6.29455 27.8483 5.71052 30.8158C5.13043 33.7873 4.97258 38.1321 9.18316 42.7649Z" fill="url(#paint1_linear_185_20982)"/>
<path d="M12.861 0C12.861 0 19.0605 4.86171 14.5026 12.0635C9.94477 19.2653 3.85185 24.8334 3.27176 31.6129C3.27176 31.6129 3.11392 33.9451 3.69401 35.9577C3.69401 35.9577 -2.55675 29.0163 1.20397 22.2881C4.96468 15.5598 8.51625 12.9632 11.0063 7.08341C13.4963 1.20359 12.861 0 12.861 0Z" fill="url(#paint2_linear_185_20982)"/>
<path d="M38.8308 29.1543C39.0084 29.1937 39.2294 29.2332 39.4859 29.2726C39.7424 29.3121 40.0226 29.3516 40.3186 29.391C40.6145 29.4305 40.9223 29.466 41.242 29.4936C41.5577 29.5252 41.8576 29.537 42.1378 29.537C43.3295 29.537 44.3989 29.4384 45.3421 29.2411C46.2852 29.0438 47.1494 28.7241 47.9347 28.2861C48.72 27.8481 49.4579 27.2917 50.1525 26.6169C50.847 25.9421 51.5534 25.1291 52.2676 24.1742L52.5952 24.4425L49.8841 30.4289C49.5448 30.3894 49.1975 30.3579 48.8423 30.3381C48.4832 30.3184 48.136 30.3065 47.8005 30.3065H36.5973C36.0212 30.3065 35.445 30.3144 34.8689 30.3381C34.2927 30.3579 33.7166 30.3855 33.1404 30.4289V30.0698C33.8547 30.0106 34.4111 29.9001 34.8097 29.7422C35.2083 29.5844 35.5042 29.3358 35.7055 28.9964C35.9028 28.657 36.0291 28.219 36.0764 27.6705C36.1238 27.1259 36.1514 26.4353 36.1514 25.5987V15.6583C36.1514 14.8257 36.1277 14.1351 36.0764 13.5866C36.0251 13.042 35.9028 12.6 35.7055 12.2606C35.5082 11.9213 35.2004 11.6766 34.7821 11.5148C34.3638 11.357 33.7995 11.2465 33.0852 11.1873V10.8282C33.76 10.8479 34.3993 10.8676 35.007 10.8874C35.6147 10.9071 36.2382 10.9229 36.8854 10.9308C37.5286 10.9426 38.2152 10.9465 38.9413 10.9465C39.6674 10.9465 40.4843 10.9465 41.3998 10.9465C42.7889 10.9465 44.1819 10.9387 45.5709 10.915C46.96 10.8952 48.3727 10.8676 49.8013 10.8242C49.7815 11.0413 49.7657 11.2622 49.7578 11.4793C49.746 11.6963 49.7421 11.9055 49.7421 12.1028V13.2945C49.7421 13.7326 49.7618 14.1745 49.8013 14.6205C49.8407 15.0664 49.8802 15.5596 49.9196 16.0963L49.5329 16.2147C49.2764 15.2597 48.9331 14.4823 48.5069 13.8746C48.0807 13.2709 47.5835 12.7973 47.0192 12.4579C46.4549 12.1186 45.8314 11.8936 45.1566 11.7713C44.4818 11.6529 43.7675 11.5937 43.0099 11.5937C41.6208 11.5937 40.2278 11.6529 38.8387 11.7713V19.2217C39.2373 19.2217 39.6201 19.2138 39.9871 19.1901C40.3541 19.1704 40.7369 19.1586 41.1354 19.1586C42.5048 19.1586 43.5939 18.8863 44.3989 18.3378C45.2039 17.7932 45.6933 16.7948 45.8748 15.3426H46.2339C46.2339 16.0569 46.2221 16.7711 46.2023 17.4893C46.1826 18.2036 46.1708 18.91 46.1708 19.6045C46.1708 20.3187 46.1787 21.033 46.2023 21.7512C46.2221 22.4655 46.2339 23.1797 46.2339 23.8979H45.8748C45.6972 23.0653 45.4762 22.3826 45.2197 21.8578C44.9632 21.3329 44.6396 20.9304 44.2529 20.6502C43.8662 20.374 43.3848 20.1846 42.8086 20.0859C42.2325 19.9873 41.5458 19.936 40.7526 19.936H38.8466V29.1543H38.8308Z" fill="url(#paint3_linear_185_20982)"/>
<path d="M70.5306 10.8322C71.2448 10.8717 71.9591 10.9032 72.6773 10.923C73.3916 10.9427 74.1058 10.9545 74.824 10.9545C75.4594 10.9545 76.0908 10.9466 76.7143 10.923C77.3417 10.9032 77.9692 10.8756 78.6045 10.8322V11.1913C77.7718 11.3097 77.0852 11.5504 76.5485 11.9056C76.0118 12.2607 75.7435 12.9079 75.7435 13.8431C75.7435 14.3404 75.8185 15.1493 75.9684 16.27C76.1184 17.3908 76.3039 18.618 76.5327 19.9479C76.7616 21.2778 76.9984 22.6116 77.247 23.9414C77.4956 25.2713 77.7284 26.4039 77.9455 27.3391C78.0441 27.7377 78.1546 28.0849 78.273 28.3809C78.3914 28.6769 78.5611 28.9412 78.7781 29.1701C78.9952 29.399 79.303 29.5884 79.7015 29.7344C80.1001 29.8844 80.6249 29.9988 81.28 30.0778V30.4369C80.4868 30.3974 79.6976 30.3658 78.9123 30.3461C78.127 30.3264 77.3378 30.3145 76.5446 30.3145C75.7909 30.3145 75.049 30.3224 74.3268 30.3461C73.6007 30.3658 72.8628 30.3934 72.1091 30.4369V30.0778C72.5274 30.0186 72.922 29.9436 73.3008 29.8528C73.6796 29.7621 74.0111 29.6279 74.2992 29.4503C74.5873 29.2727 74.8122 29.0281 74.97 28.7203C75.1279 28.4125 75.2068 28.0021 75.2068 27.4851C75.2068 27.2483 75.195 26.9287 75.1752 26.5301C75.1555 26.1316 75.0963 25.6778 74.9977 25.1608L72.9417 13.1525H72.8825C72.3261 14.5811 71.7381 15.9978 71.1265 17.3986C70.5108 18.7995 69.9031 20.2044 69.3073 21.6132C68.7114 23.022 68.1313 24.4505 67.563 25.8869C66.9987 27.3273 66.4857 28.8031 66.028 30.3106H65.9688C65.0138 27.2325 63.9365 24.269 62.7369 21.4159C61.5333 18.5667 60.2508 15.7097 58.8775 12.8487H58.8183C58.6604 13.9418 58.4987 15.1533 58.3408 16.4831C58.183 17.813 58.0369 19.1113 57.9107 20.3701C57.7804 21.6329 57.6778 22.7852 57.5989 23.827C57.52 24.8688 57.4805 25.6501 57.4805 26.1671C57.4805 26.8221 57.5239 27.3865 57.6147 27.8639C57.7055 28.3414 57.8791 28.74 58.1356 29.0557C58.3921 29.3753 58.7473 29.6121 59.1932 29.7699C59.6391 29.9278 60.2192 30.0304 60.9374 30.0699V30.429C60.1048 30.3895 59.2879 30.3579 58.4947 30.3382C57.7015 30.3185 56.8847 30.3066 56.052 30.3066C55.4364 30.3066 54.8247 30.3145 54.221 30.3382C53.6133 30.3579 53.0056 30.3856 52.39 30.429V30.0699C52.8083 30.0304 53.2187 29.9515 53.6251 29.8331C54.0316 29.7147 54.4025 29.549 54.7419 29.3398C55.0813 29.1307 55.3614 28.8821 55.5903 28.594C55.8192 28.3059 55.9613 27.9626 56.0204 27.564C56.1388 26.8695 56.2493 26.1395 56.348 25.3739C56.4466 24.6083 56.5453 23.8507 56.6439 23.093L58.0725 12.4856C57.6542 12.1502 57.157 11.87 56.5848 11.653C56.0086 11.436 55.4325 11.2742 54.8563 11.1755V10.8164C55.7087 10.8559 56.5611 10.8874 57.4056 10.9072C58.25 10.9269 59.0985 10.9387 59.9548 10.9387C60.5704 10.9387 61.1821 10.9308 61.7858 10.9072C62.3896 10.8874 63.0013 10.8598 63.6169 10.8164V11.1755C63.238 11.2742 62.8908 11.4399 62.5751 11.6688C62.2554 11.8977 62.0976 12.2607 62.0976 12.7579C62.0976 13.0973 62.1528 13.4248 62.2633 13.7405C62.3738 14.0602 62.4961 14.3877 62.6343 14.7231L66.8369 25.0306C67.8511 22.9273 68.814 20.816 69.7256 18.7009C70.6371 16.5857 71.4737 14.4153 72.2274 12.1897C72.0104 11.9332 71.75 11.724 71.454 11.5662C71.158 11.4083 70.8463 11.2781 70.5306 11.1795V10.8322Z" fill="url(#paint4_linear_185_20982)"/>
<path d="M82.4796 20.6345C82.4796 19.0245 82.7717 17.5841 83.3596 16.3134C83.9437 15.0428 84.7329 13.9655 85.7273 13.0815C86.7218 12.1976 87.8859 11.5228 89.2276 11.0571C90.5693 10.5915 91.9939 10.3586 93.5013 10.3586C95.0088 10.3586 96.4373 10.5915 97.7751 11.0571C99.1168 11.5228 100.285 12.1976 101.275 13.0815C102.27 13.9655 103.059 15.0428 103.643 16.3134C104.227 17.5841 104.523 19.0245 104.523 20.6345C104.523 22.2446 104.231 23.6849 103.643 24.9556C103.055 26.2263 102.266 27.3036 101.275 28.1875C100.281 29.0715 99.1168 29.7463 97.7751 30.2119C96.4334 30.6776 95.0088 30.9104 93.5013 30.9104C91.9939 30.9104 90.5654 30.6776 89.2276 30.2119C87.8859 29.7463 86.7218 29.0715 85.7273 28.1875C84.7329 27.3036 83.9437 26.2263 83.3596 24.9556C82.7717 23.681 82.4796 22.2406 82.4796 20.6345ZM85.6366 20.6345C85.6366 21.846 85.8142 23.0062 86.1733 24.119C86.5324 25.2318 87.0454 26.2105 87.7241 27.055C88.3989 27.8994 89.2237 28.5742 90.1984 29.0794C91.1731 29.5845 92.2741 29.837 93.5053 29.837C94.7365 29.837 95.8375 29.5845 96.8122 29.0794C97.783 28.5742 98.6077 27.8994 99.2865 27.055C99.9613 26.2105 100.478 25.2318 100.837 24.119C101.196 23.0062 101.374 21.846 101.374 20.6345C101.374 19.423 101.196 18.2629 100.837 17.15C100.478 16.0372 99.9613 15.0586 99.2865 14.2141C98.6117 13.3696 97.7869 12.6948 96.8122 12.1897C95.8375 11.6846 94.7365 11.4281 93.5053 11.4281C92.2741 11.4281 91.1731 11.6806 90.1984 12.1897C89.2237 12.6948 88.3989 13.3735 87.7241 14.2141C87.0493 15.0586 86.5324 16.0372 86.1733 17.15C85.8181 18.2589 85.6366 19.423 85.6366 20.6345Z" fill="url(#paint5_linear_185_20982)"/>
<path d="M127.884 30.3144H122.522C121.271 28.9451 120.114 27.5402 119.049 26.0999C117.987 24.6595 117.036 23.1363 116.204 21.5263C116.006 21.5263 115.75 21.5065 115.442 21.4671C115.134 21.4276 114.819 21.3842 114.487 21.3329C114.16 21.2855 113.84 21.2224 113.532 21.1553C113.224 21.0843 112.972 21.0211 112.771 20.9619V25.6106C112.771 26.4432 112.794 27.1338 112.846 27.6823C112.893 28.2269 113.023 28.6689 113.232 29.0082C113.441 29.3476 113.753 29.5962 114.171 29.7541C114.59 29.9119 115.166 30.0224 115.9 30.0816V30.4407C115.146 30.4012 114.389 30.3697 113.635 30.3499C112.881 30.3302 112.123 30.3184 111.37 30.3184C110.636 30.3184 109.91 30.3263 109.195 30.3499C108.481 30.3697 107.767 30.3973 107.049 30.4407V30.0816C107.763 30.0224 108.319 29.9119 108.718 29.7541C109.116 29.5962 109.416 29.3476 109.625 29.0082C109.835 28.6689 109.961 28.2308 110.012 27.6823C110.06 27.1377 110.087 26.4471 110.087 25.6106V15.6583C110.087 14.8256 110.063 14.135 110.012 13.5865C109.961 13.0419 109.835 12.6 109.625 12.2606C109.416 11.9212 109.112 11.6766 108.718 11.5148C108.319 11.3569 107.763 11.2464 107.049 11.1872V10.8281C107.684 10.8676 108.319 10.8992 108.955 10.9189C109.59 10.9386 110.225 10.9505 110.861 10.9505C111.137 10.9505 111.488 10.9347 111.902 10.9071C112.321 10.8755 112.763 10.8439 113.228 10.8045C113.694 10.765 114.168 10.7295 114.645 10.7019C115.123 10.6742 115.549 10.6584 115.928 10.6584C116.78 10.6584 117.656 10.7689 118.548 10.986C119.44 11.203 120.245 11.5503 120.963 12.0278C121.677 12.5053 122.265 13.109 122.719 13.847C123.177 14.581 123.406 15.457 123.406 16.4672C123.406 17.1618 123.283 17.7774 123.035 18.3141C122.786 18.8507 122.455 19.3164 122.036 19.715C121.618 20.1135 121.129 20.441 120.56 20.6976C119.996 20.958 119.404 21.1435 118.789 21.2619C119.065 21.7393 119.396 22.276 119.771 22.8719C120.146 23.4678 120.572 24.0755 121.038 24.6911C121.503 25.3067 122.001 25.9184 122.53 26.5221C123.054 27.1298 123.611 27.6744 124.199 28.1598C124.783 28.6452 125.387 29.0516 126.002 29.3831C126.618 29.7106 127.241 29.904 127.881 29.9632V30.3144H127.884ZM112.778 19.9478C113.67 20.2871 114.598 20.4529 115.549 20.4529C117.1 20.4529 118.299 20.0938 119.156 19.3795C120.008 18.6653 120.438 17.5011 120.438 15.895C120.438 15.24 120.316 14.648 120.067 14.1232C119.818 13.5984 119.475 13.1406 119.041 12.7539C118.603 12.3671 118.102 12.0672 117.538 11.8581C116.973 11.6489 116.381 11.5463 115.766 11.5463C115.269 11.5463 114.783 11.5661 114.306 11.6055C113.828 11.645 113.362 11.7358 112.905 11.8739C112.865 12.8289 112.834 13.7917 112.814 14.7625C112.794 15.7372 112.782 16.7869 112.782 17.9194V19.9478H112.778Z" fill="url(#paint6_linear_185_20982)"/>
<path d="M133.902 21.7039L131.937 27.0983C131.878 27.2562 131.823 27.3943 131.771 27.5166C131.72 27.635 131.697 27.7652 131.697 27.9034C131.697 28.2625 131.799 28.5703 132.008 28.8268C132.217 29.0872 132.47 29.3003 132.766 29.466C133.062 29.6318 133.374 29.7699 133.689 29.8686C134.005 29.9672 134.273 30.0382 134.494 30.0777V30.4368C133.898 30.3974 133.303 30.3658 132.707 30.346C132.111 30.3263 131.503 30.3145 130.888 30.3145C130.292 30.3145 129.712 30.3224 129.143 30.346C128.579 30.3658 127.975 30.3934 127.34 30.4368V30.0777C127.956 29.9396 128.469 29.7265 128.875 29.4384C129.281 29.1504 129.625 28.807 129.901 28.4124C130.177 28.0139 130.422 27.5798 130.631 27.1023C130.84 26.6248 131.041 26.1315 131.243 25.6146L136.396 12.9513C136.456 12.8131 136.511 12.6829 136.562 12.5645C136.609 12.4461 136.637 12.3356 136.637 12.237C136.637 12.1383 136.602 11.9884 136.535 11.7911C136.463 11.5938 136.381 11.4122 136.282 11.2544C136.799 11.1557 137.245 11.0255 137.624 10.8677C138.003 10.7098 138.417 10.5401 138.875 10.3625L145.07 27.4061C145.346 28.1796 145.737 28.7913 146.23 29.2372C146.728 29.6831 147.462 29.9672 148.436 30.0856V30.4447C147.643 30.4052 146.862 30.3737 146.096 30.3539C145.331 30.3342 144.533 30.3224 143.697 30.3224C143.16 30.3224 142.695 30.3224 142.296 30.3224C141.897 30.3224 141.542 30.3263 141.223 30.3382C140.903 30.3461 140.603 30.3618 140.315 30.3816C140.027 30.4013 139.715 30.421 139.376 30.4408V30.0817C140.208 29.983 140.911 29.7699 141.475 29.4424C142.039 29.1148 142.324 28.6729 142.324 28.1165C142.324 27.9586 142.288 27.8008 142.221 27.639C142.15 27.4811 142.095 27.3312 142.055 27.193L140.118 21.7118H133.902V21.7039ZM137.123 13.2433L134.202 20.8121H139.802L137.123 13.2433Z" fill="url(#paint7_linear_185_20982)"/>
<path d="M33.0813 37.623H35.1096C36.1514 37.623 36.8578 38.2071 36.8578 39.1384C36.8578 40.2039 36.0528 40.6892 35.0859 40.6892H34.1428V42.5203H33.0813V37.623ZM34.1428 39.8487H34.9518C35.4411 39.8487 35.7884 39.6593 35.7884 39.1581C35.7884 38.653 35.4214 38.4636 34.9755 38.4636H34.1468V39.8487H34.1428Z" fill="#FFE2AE"/>
<path d="M45.9182 40.6735C45.9182 41.7863 45.2513 42.6031 44.0872 42.6031C42.9468 42.6031 42.2798 41.7902 42.2798 40.6932C42.2798 39.5567 42.9665 38.7556 44.1346 38.7556C45.2158 38.7556 45.9182 39.5212 45.9182 40.6735ZM43.3137 40.6814C43.3137 41.3877 43.6176 41.81 44.1069 41.81C44.6042 41.81 44.8804 41.3917 44.8804 40.6893C44.8804 39.9197 44.5963 39.5567 44.0911 39.5567C43.6215 39.5527 43.3137 39.904 43.3137 40.6814Z" fill="#FFE2AE"/>
<path d="M51.5179 42.5203V37.335H52.536V42.5203H51.5179Z" fill="#FFE2AE"/>
<path d="M59.0196 38.8425C59.3984 40.1132 59.7299 41.2418 59.7891 41.5851H59.797C59.8759 41.2142 60.093 40.3894 60.531 38.8425H61.5451L60.31 42.6269C59.9588 43.6845 59.6668 44.0002 58.7828 44.0002C58.692 44.0002 58.4829 43.9923 58.3053 43.9726V43.1557C58.3724 43.1636 58.4869 43.1715 58.5697 43.1715C58.9446 43.1715 59.134 43.0413 59.2682 42.6348L57.9304 38.8465H59.0196V38.8425Z" fill="#FFE2AE"/>
<path d="M70.1202 41.3324C69.9939 41.9441 69.5638 42.6071 68.4668 42.6071C67.3224 42.6071 66.7344 41.8139 66.7344 40.7089C66.7344 39.6237 67.3973 38.7595 68.5181 38.7595C69.7572 38.7595 70.1044 39.6474 70.1242 40.0657H69.1297C69.0666 39.7658 68.8969 39.5566 68.4983 39.5566C68.0327 39.5566 67.7683 39.9631 67.7683 40.6774C67.7683 41.4587 68.0485 41.8178 68.4944 41.8178C68.8456 41.8178 69.0311 41.6126 69.1218 41.3364H70.1202V41.3324Z" fill="#FFE2AE"/>
<path d="M75.6685 42.5203V37.335H76.6867V42.5203H75.6685Z" fill="#FFE2AE"/>
<path d="M82.4994 37.335H83.5175V38.2426H82.4994V37.335ZM82.4994 38.8424H83.5175V42.5203H82.4994V38.8424Z" fill="#FFE2AE"/>
<path d="M89.3381 39.7697C89.3381 39.458 89.3381 39.1147 89.3302 38.8424H90.3168C90.3365 38.9371 90.3523 39.1936 90.3563 39.312C90.4825 39.0792 90.7785 38.7595 91.4217 38.7595C92.1597 38.7595 92.6411 39.2607 92.6411 40.1841V42.5242H91.623V40.2985C91.623 39.8842 91.4849 39.5843 91.035 39.5843C90.6009 39.5843 90.3563 39.825 90.3563 40.4761V42.5242H89.3381V39.7697Z" fill="#FFE2AE"/>
<path d="M98.446 37.335H99.4641V38.2426H98.446V37.335ZM98.446 38.8424H99.4641V42.5203H98.446V38.8424Z" fill="#FFE2AE"/>
<path d="M108.465 41.3324C108.339 41.9441 107.909 42.6071 106.812 42.6071C105.667 42.6071 105.079 41.8139 105.079 40.7089C105.079 39.6237 105.742 38.7595 106.863 38.7595C108.102 38.7595 108.45 39.6474 108.469 40.0657H107.475C107.412 39.7658 107.242 39.5566 106.843 39.5566C106.378 39.5566 106.113 39.9631 106.113 40.6774C106.113 41.4587 106.394 41.8178 106.839 41.8178C107.191 41.8178 107.376 41.6126 107.467 41.3364H108.465V41.3324Z" fill="#FFE2AE"/>
<defs>
<linearGradient id="paint0_linear_185_20982" x1="13.1267" y1="38.8616" x2="22.3146" y2="25.8707" gradientUnits="userSpaceOnUse">
<stop stop-color="#957138"/>
<stop offset="0.4535" stop-color="#E8C690"/>
<stop offset="0.9682" stop-color="#F1DEBC"/>
</linearGradient>
<linearGradient id="paint1_linear_185_20982" x1="2.47504" y1="38.0216" x2="22.6487" y2="9.49797" gradientUnits="userSpaceOnUse">
<stop stop-color="#E0BA82"/>
<stop offset="0.4535" stop-color="#E8C690"/>
<stop offset="0.9682" stop-color="#F1DEBC"/>
</linearGradient>
<linearGradient id="paint2_linear_185_20982" x1="-1.72821" y1="32.1242" x2="18.2809" y2="3.83337" gradientUnits="userSpaceOnUse">
<stop stop-color="#E0BA82"/>
<stop offset="0.4535" stop-color="#E8C690"/>
<stop offset="0.9682" stop-color="#F1DEBC"/>
</linearGradient>
<linearGradient id="paint3_linear_185_20982" x1="33.0818" y1="20.6327" x2="52.5967" y2="20.6327" gradientUnits="userSpaceOnUse">
<stop offset="0.0399" stop-color="#F1DEBC"/>
<stop offset="1" stop-color="#E0BA82"/>
</linearGradient>
<linearGradient id="paint4_linear_185_20982" x1="52.3881" y1="20.6328" x2="81.2879" y2="20.6328" gradientUnits="userSpaceOnUse">
<stop offset="0.0399" stop-color="#F1DEBC"/>
<stop offset="1" stop-color="#E0BA82"/>
</linearGradient>
<linearGradient id="paint5_linear_185_20982" x1="82.4795" y1="20.6328" x2="104.527" y2="20.6328" gradientUnits="userSpaceOnUse">
<stop offset="0.0399" stop-color="#F1DEBC"/>
<stop offset="1" stop-color="#E0BA82"/>
</linearGradient>
<linearGradient id="paint6_linear_185_20982" x1="107.059" y1="20.5433" x2="127.885" y2="20.5433" gradientUnits="userSpaceOnUse">
<stop offset="0.0399" stop-color="#F1DEBC"/>
<stop offset="1" stop-color="#E0BA82"/>
</linearGradient>
<linearGradient id="paint7_linear_185_20982" x1="127.348" y1="20.3944" x2="148.442" y2="20.3944" gradientUnits="userSpaceOnUse">
<stop offset="0.0399" stop-color="#F1DEBC"/>
<stop offset="1" stop-color="#E0BA82"/>
</linearGradient>
</defs>
</svg>
