<svg width="50" height="50" viewBox="0 0 50 50" fill="none" xmlns="http://www.w3.org/2000/svg">
<rect x="0.5" y="0.5" width="49" height="49" rx="24.5" stroke="#A38350" stroke-opacity="0.54"/>
<path d="M35.7955 21.2892C35.648 19.9287 35.3308 18.4247 34.1633 17.6344C33.2591 17.0214 32.0705 16.9988 30.9609 17C28.6154 17.0013 26.2685 17.0038 23.923 17.0051C21.6669 17.0076 19.4109 17.0089 17.1549 17.0114C16.2124 17.0126 15.2963 16.9422 14.421 17.3323C13.6694 17.6671 13.0811 18.3039 12.727 19.0124C12.2361 19.9979 12.1334 21.1142 12.0742 22.2041C11.9649 24.1888 11.9768 26.1786 12.1071 28.1621C12.2032 29.6094 12.4467 31.209 13.6168 32.1315C14.654 32.9483 16.1176 32.9886 17.4628 32.9898C21.7327 32.9936 26.0039 32.9974 30.2752 32.9999C30.8227 33.0012 31.394 32.9911 31.952 32.9332C33.0498 32.8199 34.0962 32.5191 34.8017 31.7414C35.5138 30.9573 35.6967 29.8661 35.8047 28.8329C36.0679 26.3258 36.0653 23.7949 35.7955 21.2892ZM21.4537 28.5144V21.4855L27.8191 24.9993L21.4537 28.5144Z" fill="white"/>
</svg>
